# xmcd
#
# Track frame offsets:
#	150
#	11169
#	33753
#	57036
#	74038
#	93100
#	126112
#	144462
#	160211
#	173598
#
# Disc length: 2609 seconds
# Revision: 0
# Processed by: cddbd v1.5.2PL0 Copyright (c) Steve Scherf et al.
# Submitted via: dBpowerAMP V12.0
#
DISCID=7d0a2f0a
DTITLE=Allman Brothers Band - Playlist Plus [CD1]
DYEAR=1900
DGENRE=Southern Rock
TTITLE0=Don't Want You No More
TTITLE1=It's not My Cross to Bear
TTITLE2=Blackhearted Woman
TTITLE3=Trouble No More
TTITLE4=Every Hungry Woman
TTITLE5=Dreams
TTITLE6=Revival
TTITLE7=Don't Keep Me Wonderin'
TTITLE8=Midnight Rider
TTITLE9=Hoochie Coochie Man
EXTD=
EXTT0=
EXTT1=
EXTT2=
EXTT3=
EXTT4=
EXTT5=
EXTT6=
EXTT7=
EXTT8=
EXTT9=
PLAYORDER=
